# xmcd CD database file
# 
# Track frame offsets:
# 	150
# 	12563
# 	24163
# 	37513
# 	48243
# 	64931
# 	78673
# 	92548
# 	107563
# 	118023
# 	127888
# 	137891
# 	149618
# 	162298
# 	176278
# 	190473
# 	206436
# 	217231
# 	227353
# 	246151
# 
# Disc length: 3449 seconds
# 
# Submitted via: Nero 6, 0, 0, 28
# 
# Revision: 0
# Processed by: cddbd v1.4PL0 Copyright (c) Steve Scherf et al.
#
DISCID=0f0d7714
DTITLE=Various Artist - Country Roads Vol 4
DYEAR=1900
DGENRE=
TTITLE0=Johnny Cash - I Wlak The Line
TTITLE1=Patsy Cline - I've Loved And Lost Again
TTITLE2=Mickey Gilley - Room Full Of Roses
TTITLE3=Eddie Rabbit - Two Dollars In The Juke Box
TTITLE4=Lee Greenwood - Ring On Her Finger, Time On Her Hands
TTITLE5=The Gatlin Brothers - Night Time Magic
TTITLE6=Janie Fricke - Somebody Else's Fire
TTITLE7=The Bellamy Brothers - Dancin' Cowboys (Live)
TTITLE8=Frankie Laine - Rawhide
TTITLE9=Merle Haggard - Mama Tried
TTITLE10=Brenda Lee - I'm Sorry (Live)
TTITLE11=Porter Wagoner - Misery Loves Company
TTITLE12=Leroy Van Dyke - The Auctioneer
TTITLE13=Stonewall Jackson - Don't Be Angry
TTITLE14=Nancy Peppers - The Words That Go Unspoken
TTITLE15=Johnny Lee - Lookin' For love
TTITLE16=Eddy Raven - I Got Mexico
TTITLE17=Don Williams - Take My Hand For A While
TTITLE18=Doug Ashdown - Winter In America
TTITLE19=Billie Jo Spears - 57 Chevrolet
EXTD=
EXTT0=
EXTT1=
EXTT2=
EXTT3=
EXTT4=
EXTT5=
EXTT6=
EXTT7=
EXTT8=
EXTT9=
EXTT10=
EXTT11=
EXTT12=
EXTT13=
EXTT14=
EXTT15=
EXTT16=
EXTT17=
EXTT18=
EXTT19=
PLAYORDER=
